<svg class="backgroundDiagram" style="position: absolute;z-index: -2;transform: rotate(-13deg);top: 40px;right: -100px;bottom: 0;left:-50px;opacity:.075;" xmlns="http://www.w3.org/2000/svg" viewBox="0 0 107.28 76.32"><polyline points="9.07 11.89 .91 11.89 .9 28.16" style="fill:none; stroke:#000; stroke-miterlimit:9.98;"></polyline><polyline points="106.38 19.65 106.38 7.57 79.48 7.57 79.48 1.07 68.61 1.07" style="fill:none; stroke:#000; stroke-miterlimit:9.98;"></polyline><polyline points="55.52 68.78 67.34 68.78 67.34 74.4 100.32 74.4 100.32 44.41 106.38 44.41 106.38 25.93" style="fill:none; stroke:#000; stroke-miterlimit:9.98;"></polyline><polyline points="100.32 44.41 67.53 44.41 67.53 32.24" style="fill:none; stroke:#000; stroke-miterlimit:9.98;"></polyline><polyline points="35.94 68.78 35.94 52.8 19.32 52.8 19.32 58.9" style="fill:none; stroke:#000; stroke-miterlimit:9.98;"></polyline><polyline points="32.28 11.89 39.37 11.86 39.43 1.04 55.43 1.07" style="fill:none; stroke:#000; stroke-miterlimit:9.98;"></polyline><line x1="9.07" y1="11.89" x2="26.26" y2="11.89" style="fill:none; stroke:#000; stroke-miterlimit:9.98;"></line><line x1="67.34" y1="68.63" x2="67.34" y2="51.76" style="fill:none; stroke:#000; stroke-miterlimit:9.98;"></line><line x1="39.36" y1="17.42" x2="39.36" y2="11.45" style="fill:none; stroke:#000; stroke-miterlimit:9.98;"></line><path d="M62.18,.65c0,6.4,6.54,6.54,6.54,6.54V.61" style="fill:none; stroke:#000; stroke-miterlimit:9.98; stroke-width:.25px;"></path><path d="M61.86,.66c0,6.4-6.54,6.54-6.54,6.54V.62" style="fill:none; stroke:#000; stroke-miterlimit:9.98; stroke-width:.25px;"></path><path d="M105.89,19.52c-6.4,0-6.54,6.54-6.54,6.54h6.59" style="fill:none; stroke:#000; stroke-miterlimit:9.98; stroke-width:.25px;"></path><path d="M55.79,68.25c0-6.4-6.54-6.54-6.54-6.54v6.59" style="fill:none; stroke:#000; stroke-miterlimit:9.98; stroke-width:.25px;"></path><path d="M67.27,51.88c6.4,0,6.54-6.54,6.54-6.54h-6.59" style="fill:none; stroke:#000; stroke-miterlimit:9.98; stroke-width:.25px;"></path><polyline points="39.52 2.81 17.93 2.81 17.93 11.61" style="fill:none; stroke:#000; stroke-miterlimit:9.98; stroke-width:.25px;"></polyline><line x1="17.93" y1="4.59" x2="39.52" y2="4.59" style="fill:none; stroke:#000; stroke-miterlimit:9.98; stroke-width:.25px;"></line><g><line x1="39.52" y1="9.92" x2="32.55" y2="9.92" style="fill:none; stroke:#000; stroke-miterlimit:9.98; stroke-width:.25px;"></line><line x1="26.21" y1="9.92" x2="17.93" y2="9.92" style="fill:none; stroke:#000; stroke-miterlimit:9.98; stroke-width:.25px;"></line><line x1="32.55" y1="11.52" x2="32.55" y2="9.92" style="fill:none; stroke:#000; stroke-miterlimit:9.98; stroke-width:.25px;"></line><g><line x1="39.52" y1="6.37" x2="32.55" y2="6.37" style="fill:none; stroke:#000; stroke-miterlimit:9.98; stroke-width:.25px;"></line><line x1="28.49" y1="6.37" x2="17.93" y2="6.37" style="fill:none; stroke:#000; stroke-miterlimit:9.98; stroke-width:.25px;"></line><line x1="32.55" y1="8.15" x2="39.52" y2="8.15" style="fill:none; stroke:#000; stroke-miterlimit:9.98; stroke-width:.25px;"></line><line x1="17.93" y1="8.15" x2="26.9" y2="8.15" style="fill:none; stroke:#000; stroke-miterlimit:9.98; stroke-width:.25px;"></line><path d="M26.21,9.92c.14-.69,.39-1.27,.69-1.78" style="fill:none; stroke:#000; stroke-miterlimit:9.98; stroke-width:.25px;"></path><line x1="32.55" y1="8.15" x2="32.55" y2="9.92" style="fill:none; stroke:#000; stroke-miterlimit:9.98; stroke-width:.25px;"></line><path d="M28.49,6.37c-.61,.44-1.17,1.02-1.6,1.78" style="fill:none; stroke:#000; stroke-miterlimit:9.98; stroke-width:.25px;"></path><path d="M28.49,6.37c1.85-1.34,4.05-1.43,4.05-1.43v1.43" style="fill:none; stroke:#000; stroke-miterlimit:9.98; stroke-width:.25px;"></path><line x1="32.55" y1="6.37" x2="32.55" y2="8.15" style="fill:none; stroke:#000; stroke-miterlimit:9.98; stroke-width:.25px;"></line></g><path d="M26.21,9.92c-.1,.49-.22,1.07-.22,1.65" style="fill:none; stroke:#000; stroke-miterlimit:9.98; stroke-width:.25px;"></path></g><polyline points="67.09 32.45 57.56 32.45 57.56 44.93" style="fill:none; stroke:#000; stroke-miterlimit:9.98; stroke-width:.25px;"></polyline><line x1="57.56" y1="34.23" x2="67.09" y2="34.23" style="fill:none; stroke:#000; stroke-miterlimit:9.98; stroke-width:.25px;"></line><line x1="57.56" y1="36.01" x2="67.09" y2="36.01" style="fill:none; stroke:#000; stroke-miterlimit:9.98; stroke-width:.25px;"></line><line x1="57.56" y1="37.79" x2="67.09" y2="37.79" style="fill:none; stroke:#000; stroke-miterlimit:9.98; stroke-width:.25px;"></line><line x1="57.56" y1="39.57" x2="67.09" y2="39.57" style="fill:none; stroke:#000; stroke-miterlimit:9.98; stroke-width:.25px;"></line><line x1="57.56" y1="41.28" x2="67.09" y2="41.28" style="fill:none; stroke:#000; stroke-miterlimit:9.98; stroke-width:.25px;"></line><line x1="57.56" y1="43.06" x2="67.09" y2="43.06" style="fill:none; stroke:#000; stroke-miterlimit:9.98; stroke-width:.25px;"></line><line x1="57.52" y1="44.79" x2="67.05" y2="44.79" style="fill:none; stroke:#000; stroke-miterlimit:9.98; stroke-width:.25px;"></line><path d="M18.75,52.62c0,6.4-6.54,6.54-6.54,6.54v-6.59" style="fill:none; stroke:#000; stroke-miterlimit:9.98; stroke-width:.25px;"></path><polyline points="25.24 12.1 25.24 17.01 6.17 17.01 6.17 47.93 11.08 47.93 11.08 52.79" style="fill:none; stroke:#000; stroke-miterlimit:9.98; stroke-width:.25px;"></polyline><g><line x1="3.82" y1="35.87" x2="3.82" y2="36.37" style="fill:none; stroke:#000; stroke-miterlimit:9.98; stroke-width:.11px;"></line><line x1="3.82" y1="37.4" x2="3.82" y2="49.23" style="fill:none; stroke:#000; stroke-dasharray:0 0 1.03 1.03; stroke-miterlimit:9.98; stroke-width:.11px;"></line><polyline points="3.82 49.75 3.82 50.25 4.32 50.25" style="fill:none; stroke:#000; stroke-miterlimit:9.98; stroke-width:.11px;"></polyline><line x1="5.2" y1="50.25" x2="10.03" y2="50.25" style="fill:none; stroke:#000; stroke-dasharray:0 0 .88 .88; stroke-miterlimit:9.98; stroke-width:.11px;"></line><line x1="10.47" y1="50.25" x2="10.97" y2="50.25" style="fill:none; stroke:#000; stroke-miterlimit:9.98; stroke-width:.11px;"></line></g><g><line x1="9.94" y1="14.62" x2="9.44" y2="14.62" style="fill:none; stroke:#000; stroke-miterlimit:9.98; stroke-width:.11px;"></line><line x1="8.41" y1="14.62" x2="4.83" y2="14.62" style="fill:none; stroke:#000; stroke-dasharray:0 0 1.02 1.02; stroke-miterlimit:9.98; stroke-width:.11px;"></line><polyline points="4.32 14.62 3.82 14.62 3.82 15.12" style="fill:none; stroke:#000; stroke-miterlimit:9.98; stroke-width:.11px;"></polyline><line x1="3.82" y1="16.15" x2="3.82" y2="27.9" style="fill:none; stroke:#000; stroke-dasharray:0 0 1.02 1.02; stroke-miterlimit:9.98; stroke-width:.11px;"></line><line x1="3.82" y1="28.41" x2="3.82" y2="28.91" style="fill:none; stroke:#000; stroke-miterlimit:9.98; stroke-width:.11px;"></line></g><g><line x1="25.24" y1="14.62" x2="24.74" y2="14.62" style="fill:none; stroke:#000; stroke-miterlimit:9.98; stroke-width:.11px;"></line><line x1="23.7" y1="14.62" x2="17.97" y2="14.62" style="fill:none; stroke:#000; stroke-dasharray:0 0 1.04 1.04; stroke-miterlimit:9.98; stroke-width:.11px;"></line><line x1="17.45" y1="14.62" x2="16.95" y2="14.62" style="fill:none; stroke:#000; stroke-miterlimit:9.98; stroke-width:.11px;"></line></g><rect x=".13" y="29.85" width="6.9" height="5.1" transform="translate(-28.82 35.98) rotate(-90)" style="fill:none; stroke:#000; stroke-miterlimit:9.98; stroke-width:.25px;"></rect><circle cx="2.65" cy="30.59" r=".77" style="fill:none; stroke:#000; stroke-miterlimit:9.98; stroke-width:.25px;"></circle><circle cx="4.7" cy="30.59" r=".77" style="fill:none; stroke:#000; stroke-miterlimit:9.98; stroke-width:.25px;"></circle><circle cx="2.65" cy="34.47" r=".77" style="fill:none; stroke:#000; stroke-miterlimit:9.98; stroke-width:.25px;"></circle><circle cx="4.7" cy="34.47" r=".77" style="fill:none; stroke:#000; stroke-miterlimit:9.98; stroke-width:.25px;"></circle><line x1="2.61" y1="31.76" x2="4.58" y2="31.76" style="fill:none; stroke:#000; stroke-miterlimit:9.98; stroke-width:.25px;"></line><line x1="2.61" y1="32.24" x2="4.58" y2="32.24" style="fill:none; stroke:#000; stroke-miterlimit:9.98; stroke-width:.25px;"></line><line x1="2.61" y1="32.72" x2="4.58" y2="32.72" style="fill:none; stroke:#000; stroke-miterlimit:9.98; stroke-width:.25px;"></line><line x1="2.61" y1="33.2" x2="4.58" y2="33.2" style="fill:none; stroke:#000; stroke-miterlimit:9.98; stroke-width:.25px;"></line><polyline points=".91 27.36 .91 52.79 11.49 52.79 11.49 75.27 35.99 75.27 35.94 68.78 49.54 68.78" style="fill:none; stroke:#000; stroke-miterlimit:9.98;"></polyline><rect x="9.99" y="12.8" width="6.9" height="3.66" style="fill:none; stroke:#000; stroke-miterlimit:9.98; stroke-width:.24px;"></rect><circle cx="13.51" cy="14.6" r=".5" style="fill:none; stroke:#000; stroke-miterlimit:9.98; stroke-width:.16px;"></circle><rect x="9.96" y="23.57" width="6.72" height="17.35" style="fill:none; stroke:#000; stroke-miterlimit:9.98; stroke-width:.25px;"></rect><rect x="77.12" y="56.83" width="15.14" height="17.35" style="fill:none; stroke:#000; stroke-miterlimit:9.98; stroke-width:.25px;"></rect><rect x="78.46" y="70.72" width="5.81" height="2.45" style="fill:none; stroke:#000; stroke-miterlimit:9.98; stroke-width:.25px;"></rect><rect x="85.18" y="70.72" width="5.81" height="2.45" style="fill:none; stroke:#000; stroke-miterlimit:9.98; stroke-width:.25px;"></rect><polygon points="90.62 69.58 90.62 68.08 91.98 68.08 90.62 69.58" style="fill:none; stroke:#000; stroke-miterlimit:9.98; stroke-width:.25px;"></polygon><line x1="90.54" y1="69.75" x2="77.13" y2="69.75" style="fill:none; stroke:#000; stroke-miterlimit:9.98; stroke-width:.25px;"></line><rect x="71.56" y="70.36" width="4.72" height="3.63" style="fill:none; stroke:#000; stroke-miterlimit:9.98; stroke-width:.25px;"></rect><rect x="93.08" y="70.36" width="4.72" height="3.63" style="fill:none; stroke:#000; stroke-miterlimit:9.98; stroke-width:.25px;"></rect><g><rect x="77.42" y="32.13" width="6.27" height="6.13" style="fill:none; stroke:#000; stroke-miterlimit:9.98; stroke-width:.25px;"></rect><rect x="83.68" y="32.13" width="6.27" height="6.13" style="fill:none; stroke:#000; stroke-miterlimit:9.98; stroke-width:.25px;"></rect><rect x="77.42" y="38.26" width="18.79" height="1.45" style="fill:none; stroke:#000; stroke-miterlimit:9.98; stroke-width:.25px;"></rect><rect x="89.95" y="32.13" width="6.27" height="6.13" style="fill:none; stroke:#000; stroke-miterlimit:9.98; stroke-width:.25px;"></rect><rect x="76.14" y="32.78" width="1.24" height="6.93" style="fill:none; stroke:#000; stroke-miterlimit:9.98; stroke-width:.25px;"></rect><rect x="96.21" y="32.78" width="1.24" height="6.93" style="fill:none; stroke:#000; stroke-miterlimit:9.98; stroke-width:.25px;"></rect></g><g><rect x="69.62" y="19.23" width="6.27" height="6.13" transform="translate(95.05 -50.45) rotate(90)" style="fill:none; stroke:#000; stroke-miterlimit:9.98; stroke-width:.25px;"></rect><rect x="65.83" y="21.58" width="6.27" height="1.45" transform="translate(91.27 -46.65) rotate(90)" style="fill:none; stroke:#000; stroke-miterlimit:9.98; stroke-width:.25px;"></rect><rect x="71.08" y="15.07" width="1.24" height="6.93" transform="translate(90.24 -53.16) rotate(90)" style="fill:none; stroke:#000; stroke-miterlimit:9.98; stroke-width:.25px;"></rect><rect x="71.08" y="22.59" width="1.24" height="6.93" transform="translate(97.75 -45.64) rotate(90)" style="fill:none; stroke:#000; stroke-miterlimit:9.98; stroke-width:.25px;"></rect></g><circle cx="92.19" cy="22.66" r="2.38" style="fill:none; stroke:#000; stroke-miterlimit:9.98; stroke-width:.25px;"></circle><circle cx="84.54" cy="22.52" r="4.29" style="fill:none; stroke:#000; stroke-miterlimit:9.98; stroke-width:.25px;"></circle><rect x="81.09" y="7.88" width="15.53" height="2.86" style="fill:none; stroke:#000; stroke-miterlimit:9.98; stroke-width:.25px;"></rect><rect x="77.14" y="44.73" width="15.53" height="2.86" style="fill:none; stroke:#000; stroke-miterlimit:9.98; stroke-width:.25px;"></rect><rect x="11.54" y="66.73" width="24.11" height="8.17" style="fill:none; stroke:#000; stroke-miterlimit:9.98; stroke-width:.25px;"></rect><g><circle cx="26.46" cy="56.19" r=".5" style="fill:none; stroke:#000; stroke-miterlimit:9.98; stroke-width:.25px;"></circle><rect x="24.37" y="51.56" width="4.18" height="8.17" transform="translate(-29.19 82.1) rotate(-90)" style="fill:none; stroke:#000; stroke-miterlimit:9.98; stroke-width:.25px;"></rect><circle cx="25.5" cy="54.53" r=".4" style="fill:none; stroke:#000; stroke-miterlimit:9.98; stroke-width:.25px;"></circle><circle cx="27.42" cy="54.53" r=".4" style="fill:none; stroke:#000; stroke-miterlimit:9.98; stroke-width:.25px;"></circle></g><circle cx="23.6" cy="70.87" r=".4" style="fill:none; stroke:#000; stroke-miterlimit:9.98; stroke-width:.25px;"></circle><g><rect x="32.4" y="61.15" width="3.66" height="1.87" transform="translate(96.32 27.85) rotate(90)" style="fill:none; stroke:#000; stroke-miterlimit:9.98; stroke-width:.22px;"></rect><rect x="31.6" y="61.65" width="3.66" height=".87" transform="translate(95.52 28.65) rotate(90)" style="fill:none; stroke:#000; stroke-miterlimit:9.98; stroke-width:.22px;"></rect><path d="M31.12,63.92s-2,.15-2-1.83,2-1.83,2-1.83h1.87v3.66h-1.87Z" style="fill:none; stroke:#000; stroke-miterlimit:9.98; stroke-width:.22px;"></path><circle cx="34.49" cy="62.09" r=".2" style="fill:none; stroke:#000; stroke-miterlimit:9.98; stroke-width:.13px;"></circle></g><rect x="58.77" y="59.08" width="13.53" height="2.86" transform="translate(5.02 126.04) rotate(-90)" style="fill:none; stroke:#000; stroke-miterlimit:9.98; stroke-width:.25px;"></rect><g><rect x="38.24" y="49.4" width="4.26" height="4.13" transform="translate(92.09 11.43) rotate(90.38)" style="fill:none; stroke:#000; stroke-miterlimit:9.98; stroke-width:.25px;"></rect><rect x="35.45" y="50.72" width="4.26" height="1.45" transform="translate(-14.12 88.69) rotate(-89.62)" style="fill:none; stroke:#000; stroke-miterlimit:9.98; stroke-width:.25px;"></rect><rect x="38.71" y="46.23" width="1.24" height="4.93" transform="translate(-9.61 87.71) rotate(-89.62)" style="fill:none; stroke:#000; stroke-miterlimit:9.98; stroke-width:.25px;"></rect><rect x="38.68" y="51.74" width="1.24" height="4.93" transform="translate(93.76 15.26) rotate(90.38)" style="fill:none; stroke:#000; stroke-miterlimit:9.98; stroke-width:.25px;"></rect></g><g><path d="M100.41,10.38c.55,0,.99,.4,.99,.4,0,0-.44,.4-.99,.4s-.99-.4-.99-.4c0,0,.44-.4,.99-.4Z" style="fill:none; stroke:#000; stroke-miterlimit:9.98; stroke-width:.1px;"></path><path d="M100.91,11.19c0-.55,.4-.99,.4-.99,0,0,.4,.44,.4,.99,0,.55-.4,.99-.4,.99,0,0-.4-.44-.4-.99Z" style="fill:none; stroke:#000; stroke-miterlimit:9.98; stroke-width:.1px;"></path><path d="M101.8,10.34c-.51,.18-1.06-.04-1.06-.04,0,0,.28-.52,.8-.71s1.06,.04,1.06,.04c0,0-.28,.52-.8,.71Z" style="fill:none; stroke:#000; stroke-miterlimit:9.98; stroke-width:.1px;"></path><path d="M102,10.2c.5,.22,.74,.77,.74,.77,0,0-.57,.18-1.06-.04s-.74-.77-.74-.77c0,0,.57-.18,1.06,.04Z" style="fill:none; stroke:#000; stroke-miterlimit:9.98; stroke-width:.1px;"></path><path d="M100.88,9.58c.06-.54,.5-.94,.5-.94,0,0,.35,.48,.29,1.02s-.5,.94-.5,.94c0,0-.35-.48-.29-1.02Z" style="fill:none; stroke:#000; stroke-miterlimit:9.98; stroke-width:.1px;"></path><path d="M100.94,11.29c-.34,.43-.93,.53-.93,.53,0,0-.04-.59,.3-1.02s.93-.53,.93-.53c0,0,.04,.59-.3,1.02Z" style="fill:none; stroke:#000; stroke-miterlimit:9.98; stroke-width:.1px;"></path><path d="M100.86,9.61c.39,.39,.42,.98,.42,.98,0,0-.59-.03-.98-.42s-.42-.98-.42-.98c0,0,.59,.03,.98,.42Z" style="fill:none; stroke:#000; stroke-miterlimit:9.98; stroke-width:.1px;"></path></g><g><path d="M103.26,10.83c.41-.37,1-.37,1-.37,0,0-.06,.59-.47,.96s-1,.37-1,.37c0,0,.06-.59,.47-.96Z" style="fill:none; stroke:#000; stroke-miterlimit:9.98; stroke-width:.1px;"></path><path d="M104.17,11.1c-.37-.41-.37-1-.37-1,0,0,.59,.06,.96,.47s.37,1,.37,1c0,0-.59-.06-.96-.47Z" style="fill:none; stroke:#000; stroke-miterlimit:9.98; stroke-width:.1px;"></path><path d="M104.26,9.86c-.26,.48-.82,.68-.82,.68,0,0-.14-.58,.12-1.06s.82-.68,.82-.68c0,0,.14,.58-.12,1.06Z" style="fill:none; stroke:#000; stroke-miterlimit:9.98; stroke-width:.1px;"></path><path d="M104.32,9.63c.52-.17,1.06,.08,1.06,.08,0,0-.3,.51-.82,.68s-1.06-.08-1.06-.08c0,0,.3-.51,.82-.68Z" style="fill:none; stroke:#000; stroke-miterlimit:9.98; stroke-width:.1px;"></path><path d="M103.08,9.92c-.32-.44-.26-1.03-.26-1.03,0,0,.58,.12,.9,.57s.26,1.03,.26,1.03c0,0-.58-.12-.9-.57Z" style="fill:none; stroke:#000; stroke-miterlimit:9.98; stroke-width:.1px;"></path><path d="M104.26,11.15c.03,.54-.34,1.01-.34,1.01,0,0-.42-.42-.46-.96s.34-1.01,.34-1.01c0,0,.42,.42,.46,.96Z" style="fill:none; stroke:#000; stroke-miterlimit:9.98; stroke-width:.1px;"></path><path d="M103.08,9.95c.54,.03,.97,.45,.97,.45,0,0-.46,.37-1.01,.35s-.97-.45-.97-.45c0,0,.46-.37,1.01-.35Z" style="fill:none; stroke:#000; stroke-miterlimit:9.98; stroke-width:.1px;"></path></g><g><path d="M104.7,12.54c-.55,0-.99-.4-.99-.4,0,0,.44-.4,.99-.4s.99,.4,.99,.4c0,0-.44,.4-.99,.4Z" style="fill:none; stroke:#000; stroke-miterlimit:9.98; stroke-width:.1px;"></path><path d="M104.21,11.73c0,.55-.4,.99-.4,.99,0,0-.4-.44-.4-.99,0-.55,.4-.99,.4-.99,0,0,.4,.44,.4,.99Z" style="fill:none; stroke:#000; stroke-miterlimit:9.98; stroke-width:.1px;"></path><path d="M103.31,12.59c.51-.18,1.06,.04,1.06,.04,0,0-.28,.52-.8,.71s-1.06-.04-1.06-.04c0,0,.28-.52,.8-.71Z" style="fill:none; stroke:#000; stroke-miterlimit:9.98; stroke-width:.1px;"></path><path d="M103.12,12.72c-.5-.22-.74-.77-.74-.77,0,0,.57-.18,1.06,.04s.74,.77,.74,.77c0,0-.57,.18-1.06-.04Z" style="fill:none; stroke:#000; stroke-miterlimit:9.98; stroke-width:.1px;"></path><path d="M104.23,13.34c-.06,.54-.5,.94-.5,.94,0,0-.35-.48-.29-1.02s.5-.94,.5-.94c0,0,.35,.48,.29,1.02Z" style="fill:none; stroke:#000; stroke-miterlimit:9.98; stroke-width:.1px;"></path><path d="M104.17,11.63c.34-.43,.93-.53,.93-.53,0,0,.04,.59-.3,1.02s-.93,.53-.93,.53c0,0-.04-.59,.3-1.02Z" style="fill:none; stroke:#000; stroke-miterlimit:9.98; stroke-width:.1px;"></path><path d="M104.25,13.31c-.39-.39-.42-.98-.42-.98,0,0,.59,.03,.98,.42s.42,.98,.42,.98c0,0-.59-.03-.98-.42Z" style="fill:none; stroke:#000; stroke-miterlimit:9.98; stroke-width:.1px;"></path></g><g><path d="M101.85,12.1c-.41,.37-1,.37-1,.37,0,0,.06-.59,.47-.96s1-.37,1-.37c0,0-.06,.59-.47,.96Z" style="fill:none; stroke:#000; stroke-miterlimit:9.98; stroke-width:.1px;"></path><path d="M100.94,11.83c.37,.41,.37,1,.37,1,0,0-.59-.06-.96-.47s-.37-1-.37-1c0,0,.59,.06,.96,.47Z" style="fill:none; stroke:#000; stroke-miterlimit:9.98; stroke-width:.1px;"></path><path d="M100.85,13.06c.26-.48,.82-.68,.82-.68,0,0,.14,.58-.12,1.06s-.82,.68-.82,.68c0,0-.14-.58,.12-1.06Z" style="fill:none; stroke:#000; stroke-miterlimit:9.98; stroke-width:.1px;"></path><path d="M100.79,13.29c-.52,.17-1.06-.08-1.06-.08,0,0,.3-.51,.82-.68s1.06,.08,1.06,.08c0,0-.3,.51-.82,.68Z" style="fill:none; stroke:#000; stroke-miterlimit:9.98; stroke-width:.1px;"></path><path d="M102.04,13.01c.32,.44,.26,1.03,.26,1.03,0,0-.58-.12-.9-.57s-.26-1.03-.26-1.03c0,0,.58,.12,.9,.57Z" style="fill:none; stroke:#000; stroke-miterlimit:9.98; stroke-width:.1px;"></path><path d="M100.85,11.77c-.03-.54,.34-1.01,.34-1.01,0,0,.42,.42,.46,.96s-.34,1.01-.34,1.01c0,0-.42-.42-.46-.96Z" style="fill:none; stroke:#000; stroke-miterlimit:9.98; stroke-width:.1px;"></path><path d="M102.03,12.97c-.54-.03-.97-.45-.97-.45,0,0,.46-.37,1.01-.35s.97,.45,.97,.45c0,0-.46,.37-1.01,.35Z" style="fill:none; stroke:#000; stroke-miterlimit:9.98; stroke-width:.1px;"></path></g><polyline points="19.32 52.8 19.3 47.9 35.94 47.9 35.96 52.8" style="fill:none; stroke:#000; stroke-miterlimit:9.98; stroke-width:.25px;"></polyline><line x1="19.34" y1="50.25" x2="35.82" y2="50.25" style="fill:none; stroke:#000; stroke-dasharray:0 1; stroke-miterlimit:9.98; stroke-width:.11px;"></line><g><rect x="44.08" y="5.78" width="6.27" height="6.13" transform="translate(86.85 -18.28) rotate(135)" style="fill:none; stroke:#000; stroke-miterlimit:9.98; stroke-width:.25px;"></rect><rect x="41.39" y="5.44" width="6.27" height="1.45" transform="translate(80.37 -20.95) rotate(135)" style="fill:none; stroke:#000; stroke-miterlimit:9.98; stroke-width:.25px;"></rect><rect x="48.5" y="1.98" width="1.24" height="6.93" transform="translate(87.71 -25.45) rotate(135)" style="fill:none; stroke:#000; stroke-miterlimit:9.98; stroke-width:.25px;"></rect><rect x="43.19" y="7.29" width="1.24" height="6.93" transform="translate(82.4 -12.62) rotate(135)" style="fill:none; stroke:#000; stroke-miterlimit:9.98; stroke-width:.25px;"></rect></g><g><rect x="34.94" y="24.75" width="1.5" height="4.52" style="fill:none; stroke:#000; stroke-miterlimit:9.98; stroke-width:.25px;"></rect><rect x="34.94" y="30.15" width="1.5" height="4.52" style="fill:none; stroke:#000; stroke-miterlimit:9.98; stroke-width:.25px;"></rect><rect x="34.94" y="35.55" width="1.5" height="4.52" style="fill:none; stroke:#000; stroke-miterlimit:9.98; stroke-width:.25px;"></rect><rect x="24.68" y="24.75" width="1.54" height="4.52" style="fill:none; stroke:#000; stroke-miterlimit:9.98; stroke-width:.25px;"></rect><rect x="24.68" y="30.15" width="1.54" height="4.52" style="fill:none; stroke:#000; stroke-miterlimit:9.98; stroke-width:.25px;"></rect><rect x="24.68" y="35.55" width="1.54" height="4.52" style="fill:none; stroke:#000; stroke-miterlimit:9.98; stroke-width:.25px;"></rect><polyline points="34.94 24.75 34.94 23.57 26.22 23.57 26.22 24.75" style="fill:none; stroke:#000; stroke-miterlimit:9.98; stroke-width:.25px;"></polyline><line x1="34.94" y1="30.15" x2="34.94" y2="29.27" style="fill:none; stroke:#000; stroke-miterlimit:9.98; stroke-width:.25px;"></line><line x1="34.94" y1="35.55" x2="34.94" y2="34.67" style="fill:none; stroke:#000; stroke-miterlimit:9.98; stroke-width:.25px;"></line><polyline points="26.22 40.07 26.22 40.91 34.94 40.91 34.94 40.07" style="fill:none; stroke:#000; stroke-miterlimit:9.98; stroke-width:.25px;"></polyline><line x1="26.22" y1="34.67" x2="26.22" y2="35.55" style="fill:none; stroke:#000; stroke-miterlimit:9.98; stroke-width:.25px;"></line><line x1="26.22" y1="29.27" x2="26.22" y2="30.15" style="fill:none; stroke:#000; stroke-miterlimit:9.98; stroke-width:.25px;"></line><line x1="34.94" y1="34.67" x2="34.94" y2="30.15" style="fill:none; stroke:#000; stroke-miterlimit:9.98; stroke-width:.25px;"></line><line x1="34.94" y1="40.07" x2="34.94" y2="35.55" style="fill:none; stroke:#000; stroke-miterlimit:9.98; stroke-width:.25px;"></line><line x1="26.22" y1="30.15" x2="26.22" y2="34.67" style="fill:none; stroke:#000; stroke-miterlimit:9.98; stroke-width:.25px;"></line><line x1="26.22" y1="35.55" x2="26.22" y2="40.07" style="fill:none; stroke:#000; stroke-miterlimit:9.98; stroke-width:.25px;"></line></g><g><rect x="38.33" y="62.33" width="4.26" height="4.13" transform="translate(104.78 23.82) rotate(89.9)" style="fill:none; stroke:#000; stroke-miterlimit:9.98; stroke-width:.25px;"></rect><rect x="36.94" y="62.28" width="1.45" height="4.26" transform="translate(-.12 .07) rotate(-.1)" style="fill:none; stroke:#000; stroke-miterlimit:9.98; stroke-width:.25px;"></rect><rect x="36.94" y="61.02" width="4.93" height="1.24" transform="translate(-.11 .07) rotate(-.1)" style="fill:none; stroke:#000; stroke-miterlimit:9.98; stroke-width:.25px;"></rect><rect x="38.79" y="64.69" width="1.24" height="4.93" transform="translate(106.49 27.62) rotate(89.9)" style="fill:none; stroke:#000; stroke-miterlimit:9.98; stroke-width:.25px;"></rect></g><circle cx="39.41" cy="57.94" r="2.38" style="fill:none; stroke:#000; stroke-miterlimit:9.98; stroke-width:.25px;"></circle></svg>