<?xml version="1.0" standalone="no"?><svg xmlns="http://www.w3.org/2000/svg" viewBox="0 0 1440 320"><path fill="#f3f4f5" fill-opacity="1" d="M0,32L26.7,53.3C53.3,75,107,117,160,133.3C213.3,149,267,139,320,128C373.3,117,427,107,480,112C533.3,117,587,139,640,160C693.3,181,747,203,800,192C853.3,181,907,139,960,133.3C1013.3,128,1067,160,1120,170.7C1173.3,181,1227,171,1280,138.7C1333.3,107,1387,53,1413,26.7L1440,0L1440,320L1413.3,320C1386.7,320,1333,320,1280,320C1226.7,320,1173,320,1120,320C1066.7,320,1013,320,960,320C906.7,320,853,320,800,320C746.7,320,693,320,640,320C586.7,320,533,320,480,320C426.7,320,373,320,320,320C266.7,320,213,320,160,320C106.7,320,53,320,27,320L0,320Z"></path></svg>