<svg xmlns="http://www.w3.org/2000/svg" version="1.1" xmlns:xlink="http://www.w3.org/1999/xlink" width="64" height="64" x="0" y="0" viewBox="0 0 60 60" style="enable-background:new 0 0 512 512" xml:space="preserve" class=""><g><path d="M10 25.465h13a1 1 0 1 0 0-2H10a1 1 0 1 0 0 2zM36 29.465H10a1 1 0 1 0 0 2h26a1 1 0 1 0 0-2zM36 35.465H10a1 1 0 1 0 0 2h26a1 1 0 1 0 0-2z" fill="#ffffff" opacity="1" data-original="#000000" class=""></path><path d="m54.072 2.535-34.142-.07c-3.27 0-5.93 2.66-5.93 5.93v5.124l-8.07.017c-3.27 0-5.93 2.66-5.93 5.93v21.141c0 3.27 2.66 5.929 5.93 5.929H12v10a1 1 0 0 0 1.74.673l9.704-10.675 16.626-.068c3.27 0 5.93-2.66 5.93-5.929v-.113l5.26 5.786a1.002 1.002 0 0 0 1.74-.673v-10h1.07c3.27 0 5.93-2.66 5.93-5.929V8.465a5.937 5.937 0 0 0-5.928-5.93zM44 40.536a3.934 3.934 0 0 1-3.934 3.929l-17.07.07a1 1 0 0 0-.736.327L14 53.949v-8.414a1 1 0 0 0-1-1H5.93A3.934 3.934 0 0 1 2 40.606V19.465a3.935 3.935 0 0 1 3.932-3.93L15 15.516h.002l25.068-.052a3.934 3.934 0 0 1 3.93 3.93v21.142zm14-10.93a3.934 3.934 0 0 1-3.93 3.929H52a1 1 0 0 0-1 1v8.414l-5-5.5V19.395c0-3.27-2.66-5.93-5.932-5.93L16 13.514v-5.12a3.934 3.934 0 0 1 3.928-3.93l34.141.07h.002a3.934 3.934 0 0 1 3.93 3.93v21.142z" fill="#ffffff" opacity="1" data-original="#000000" class=""></path></g></svg>